<svg xmlns="http://www.w3.org/2000/svg" viewBox="0 0 100 100">
  <rect x="5" y="5" width="18" height="18" rx="3" fill="#1f60c4"/>
  <rect x="27" y="5" width="18" height="18" rx="3" fill="#3274d9"/>
  <rect x="49" y="5" width="18" height="18" rx="3" fill="#8ab8ff"/>
  <rect x="71" y="5" width="18" height="18" rx="3" fill="#c0d8ff"/>
  <rect x="5" y="27" width="18" height="18" rx="3" fill="#c0d8ff"/>
  <rect x="27" y="27" width="18" height="18" rx="3" fill="#1f60c4"/>
  <rect x="49" y="27" width="18" height="18" rx="3" fill="#ebedf0"/>
  <rect x="71" y="27" width="18" height="18" rx="3" fill="#3274d9"/>
  <rect x="5" y="49" width="18" height="18" rx="3" fill="#8ab8ff"/>
  <rect x="27" y="49" width="18" height="18" rx="3" fill="#ebedf0"/>
  <rect x="49" y="49" width="18" height="18" rx="3" fill="#1f60c4"/>
  <rect x="71" y="49" width="18" height="18" rx="3" fill="#c0d8ff"/>
  <rect x="5" y="71" width="18" height="18" rx="3" fill="#ebedf0"/>
  <rect x="27" y="71" width="18" height="18" rx="3" fill="#8ab8ff"/>
  <rect x="49" y="71" width="18" height="18" rx="3" fill="#3274d9"/>
  <rect x="71" y="71" width="18" height="18" rx="3" fill="#8ab8ff"/>
</svg>
